# File created by Blade
# Date/Time:  Tue Sep 23 19:22:32 2014
# Frame Rate: 120.000 fps
#------------------------------------------------------
:FULLY-SPECIFIED
:DEGREES
1900
root 4.599181 34.610844 4.947107 131.778451 -11.995511 -36.870063
Spine -77.699335 -12.159450 39.607426
Head -11.193458 23.642976 45.065036
LeftShoulder -21.289310 37.574209 40.805712
LeftArm 130.539173 -77.621341 -158.469552
LeftForeArm 53.996971 -0.000000 112.287983
LeftHand 12.742148 0.000000 30.958214
LeftHandThumb1 -26.253704 0.000000 33.147579
RightShoulder -59.651237 -51.401842 19.644721
RightArm 21.116257 18.581459 65.960416
RightForeArm 24.428062 0.000000 112.987513
RightHand 8.137943 -0.000000 3.188220
RightHandThumb1 -24.326973 -0.000000 -32.862282
LeftUpLeg -116.152669 34.975062 -4.076231
LeftLeg -0.883485 -0.000000 0.000000
LeftFoot 0.923817 -1.414935 11.346980
LeftToeBase -5.317238 -0.000000 0.000000
RightUpLeg -0.708403 15.255486 -30.000529
RightLeg 129.316016 -0.000000 -0.000000
RightFoot 45.572501 13.232361 -9.212066
RightToeBase 34.699349 -0.000000 -0.000000
1901
root 4.625207 34.604962 4.951379 132.019905 -12.071399 -36.821871
Spine -77.783029 -12.059910 39.502341
Head -11.338498 23.545249 45.104830
LeftShoulder -21.352321 37.544426 40.808103
LeftArm 130.829859 -77.423471 -158.753939
LeftForeArm 53.887095 -0.000000 112.268519
LeftHand 13.051854 -0.000000 30.612448
LeftHandThumb1 -26.253704 0.000000 33.147579
RightShoulder -59.593413 -51.547881 19.624305
RightArm 21.154473 18.155425 65.749145
RightForeArm 23.672696 0.000000 113.341060
RightHand 8.426263 -0.000000 2.485370
RightHandThumb1 -24.326973 -0.000000 -32.862282
LeftUpLeg -116.317715 34.888742 -4.151994
LeftLeg -1.040842 -0.000000 0.000000
LeftFoot 1.010835 -1.455770 11.353253
LeftToeBase -5.359832 -0.000000 0.000000
RightUpLeg -0.766478 15.544431 -30.039389
RightLeg 129.608589 -0.000000 -0.000000
RightFoot 45.678078 13.599128 -9.093973
RightToeBase 34.369749 -0.000000 -0.000000
1902
root 4.652933 34.599754 4.953578 132.209100 -12.146576 -36.763967
Spine -77.802719 -12.004407 39.370810
Head -11.539651 23.560016 45.135691
LeftShoulder -21.356280 37.358489 40.972056
LeftArm 130.662576 -77.289006 -158.726799
LeftForeArm 53.623327 -0.000000 112.281016
LeftHand 13.196803 -0.000000 30.464696
LeftHandThumb1 -26.253704 0.000000 33.147579
RightShoulder -59.574917 -51.675403 19.721418
RightArm 21.200735 17.752206 65.485862
RightForeArm 23.352524 -0.000000 113.682522
RightHand 8.950338 -0.000000 2.301810
RightHandThumb1 -24.326973 -0.000000 -32.862282
LeftUpLeg -116.428123 34.818872 -4.142805
LeftLeg -1.144080 -0.000000 0.000000
LeftFoot 1.088448 -1.480638 11.342727
LeftToeBase -5.392893 -0.000000 0.000000
RightUpLeg -0.791636 15.806624 -30.067977
RightLeg 129.892779 -0.000000 -0.000000
RightFoot 45.839872 13.958497 -8.992726
RightToeBase 33.990627 -0.000000 -0.000000
1903
root 4.679356 34.594524 4.952100 132.345414 -12.209117 -36.730483
Spine -77.759013 -11.970646 39.203940
Head -11.713294 23.566290 45.173637
LeftShoulder -21.307620 37.212796 41.168861
LeftArm 130.560065 -77.249356 -158.804709
LeftForeArm 53.472374 -0.000000 112.299624
LeftHand 13.077844 -0.000000 30.571102
LeftHandThumb1 -26.253704 0.000000 33.147579
RightShoulder -59.677482 -51.864285 19.892270
RightArm 21.339994 17.217822 65.213172
RightForeArm 23.183781 -0.000000 113.825688
RightHand 9.423264 -0.000000 1.908660
RightHandThumb1 -24.326973 -0.000000 -32.862282
LeftUpLeg -116.492243 34.780576 -4.104902
LeftLeg -1.219499 -0.000000 0.000000
LeftFoot 1.142665 -1.468732 11.305362
LeftToeBase -5.439539 -0.000000 0.000000
RightUpLeg -0.789986 16.121041 -30.089344
RightLeg 130.186925 -0.000000 -0.000000
RightFoot 45.953801 14.185663 -8.820316
RightToeBase 33.529954 -0.000000 -0.000000
1904
root 4.711726 34.589748 4.950591 132.466182 -12.303346 -36.696004
Spine -77.696557 -11.962329 39.016634
Head -11.918137 23.585999 45.182180
LeftShoulder -21.218843 37.083368 41.397517
LeftArm 130.715092 -77.230650 -159.221102
LeftForeArm 53.538832 -0.000000 112.352085
LeftHand 13.116920 -0.000000 30.551111
LeftHandThumb1 -26.253704 0.000000 33.147579
RightShoulder -59.780891 -52.035269 20.081007
RightArm 21.503820 16.900318 65.128811
RightForeArm 23.395825 -0.000000 114.005443
RightHand 9.314648 -0.000000 2.146338
RightHandThumb1 -24.326973 -0.000000 -32.862282
LeftUpLeg -116.590464 34.672081 -4.140748
LeftLeg -1.258463 -0.000000 0.000000
LeftFoot 1.169014 -1.458968 11.292221
LeftToeBase -5.380264 -0.000000 0.000000
RightUpLeg -0.778959 16.411807 -30.167337
RightLeg 130.486018 -0.000000 -0.000000
RightFoot 46.044165 14.263695 -8.565378
RightToeBase 33.019231 -0.000000 -0.000000
1905
root 4.752445 34.586419 4.950196 132.638620 -12.418885 -36.662273
Spine -77.654285 -11.918803 38.831424
Head -12.136729 23.639391 45.144537
LeftShoulder -21.300206 37.131414 41.409925
LeftArm 131.045428 -76.968934 -159.692376
LeftForeArm 53.594135 -0.000000 112.393626
LeftHand 13.080671 0.000000 30.536996
LeftHandThumb1 -26.253704 0.000000 33.147579
RightShoulder -59.966215 -52.161892 20.306408
RightArm 21.766647 16.578523 65.005820
RightForeArm 23.236677 -0.000000 114.141538
RightHand 9.506151 0.000000 2.203306
RightHandThumb1 -24.326973 -0.000000 -32.862282
LeftUpLeg -116.770249 34.522858 -4.239474
LeftLeg -1.277698 -0.000000 0.000000
LeftFoot 1.198921 -1.470230 11.295714
LeftToeBase -5.329050 -0.000000 0.000000
RightUpLeg -0.818604 16.645108 -30.293257
RightLeg 130.783549 -0.000000 -0.000000
RightFoot 46.024697 14.378404 -8.593914
RightToeBase 32.802798 -0.000000 -0.000000
1906
root 4.792201 34.581722 4.949523 132.793366 -12.593778 -36.598106
Spine -77.647324 -11.925156 38.652232
Head -12.354589 23.703514 45.064718
LeftShoulder -21.272911 37.124904 41.456789
LeftArm 131.821143 -76.921652 -160.618119
LeftForeArm 53.706225 0.000000 112.416646
LeftHand 12.855749 -0.000000 30.716390
LeftHandThumb1 -26.253704 0.000000 33.147579
RightShoulder -60.143583 -52.262446 20.506828
RightArm 21.962331 16.310087 64.843507
RightForeArm 22.826157 -0.000000 114.315033
RightHand 9.311063 -0.000000 2.393980
RightHandThumb1 -24.326973 -0.000000 -32.862282
LeftUpLeg -116.927508 34.313073 -4.349094
LeftLeg -1.287006 -0.000000 0.000000
LeftFoot 1.207641 -1.486514 11.247573
LeftToeBase -5.220674 -0.000000 0.000000
RightUpLeg -0.804652 16.794951 -30.426898
RightLeg 131.049520 -0.000000 -0.000000
RightFoot 46.048658 14.393921 -8.606833
RightToeBase 32.487099 -0.000000 -0.000000
1907
root 4.831944 34.574994 4.948360 132.896316 -12.747698 -36.583838
Spine -77.572076 -11.935268 38.482644
Head -12.526635 23.782293 44.994039
LeftShoulder -21.246584 37.179985 41.487640
LeftArm 132.730869 -76.920972 -161.698289
LeftForeArm 53.759894 -0.000000 112.433616
LeftHand 12.634722 -0.000000 30.974125
LeftHandThumb1 -26.253704 0.000000 33.147579
RightShoulder -60.168267 -52.339566 20.580632
RightArm 22.087423 16.171047 64.714020
RightForeArm 22.500872 0.000000 114.578911
RightHand 9.053625 0.000000 2.665330
RightHandThumb1 -24.326973 -0.000000 -32.862282
LeftUpLeg -117.019857 34.167730 -4.426259
LeftLeg -1.271021 -0.000000 0.000000
LeftFoot 1.159189 -1.487737 11.218711
LeftToeBase -5.133358 -0.000000 0.000000
RightUpLeg -0.764569 17.010127 -30.561711
RightLeg 131.312853 -0.000000 -0.000000
RightFoot 45.974615 14.362459 -8.707622
RightToeBase 32.312926 -0.000000 -0.000000
1908
root 4.867605 34.569489 4.945719 132.989855 -12.836421 -36.601537
Spine -77.457633 -11.917199 38.361226
Head -12.631114 23.877249 44.944003
LeftShoulder -21.360326 37.266483 41.404473
LeftArm 133.305617 -76.784544 -162.308851
LeftForeArm 53.634403 -0.000000 112.439167
LeftHand 12.639274 -0.000000 31.025169
LeftHandThumb1 -26.253704 0.000000 33.147579
RightShoulder -60.065114 -52.452466 20.549227
RightArm 22.150967 16.191589 64.657975
RightForeArm 22.131630 -0.000000 114.857719
RightHand 8.913870 -0.000000 3.214584
RightHandThumb1 -24.326973 -0.000000 -32.862282
LeftUpLeg -117.099703 34.135185 -4.426058
LeftLeg -1.208570 -0.000000 0.000000
LeftFoot 1.076167 -1.481206 11.099990
LeftToeBase -4.985124 -0.000000 0.000000
RightUpLeg -0.747979 17.277742 -30.643479
RightLeg 131.538632 -0.000000 -0.000000
RightFoot 46.022413 14.442976 -8.786722
RightToeBase 32.674726 -0.000000 -0.000000
1909
root 4.907307 34.564177 4.944956 133.104662 -12.945632 -36.635445
Spine -77.364291 -11.883708 38.250707
Head -12.686170 24.002516 44.884796
LeftShoulder -21.470925 37.345803 41.280464
LeftArm 134.011650 -76.613230 -163.012896
LeftForeArm 53.350613 -0.000000 112.447702
LeftHand 12.826161 -0.000000 30.940446
LeftHandThumb1 -26.253704 0.000000 33.147579
RightShoulder -59.770935 -52.473800 20.331644
RightArm 22.052804 16.234309 64.509458
RightForeArm 21.465868 -0.000000 115.261253
RightHand 8.302404 -0.000000 3.732882
RightHandThumb1 -24.326973 -0.000000 -32.862282
LeftUpLeg -117.199152 34.109865 -4.434376
LeftLeg -1.109891 -0.000000 0.000000
LeftFoot 0.961622 -1.472798 10.894109
LeftToeBase -4.791156 -0.000000 0.000000
RightUpLeg -0.760883 17.546305 -30.752540
RightLeg 131.745990 -0.000000 -0.000000
RightFoot 46.139628 14.530325 -8.786469
RightToeBase 33.088385 -0.000000 -0.000000
1910
root 4.942372 34.556215 4.942185 133.146290 -13.048965 -36.712367
Spine -77.208973 -11.887139 38.106863
Head -12.658028 24.095588 44.867273
LeftShoulder -21.541962 37.416147 41.209237
LeftArm 134.635401 -76.514924 -163.656122
LeftForeArm 53.270088 -0.000000 112.469637
LeftHand 12.782017 -0.000000 30.956129
LeftHandThumb1 -26.253704 0.000000 33.147579
RightShoulder -59.446469 -52.547451 20.082009
RightArm 21.944794 16.215407 64.334580
RightForeArm 21.049131 -0.000000 115.531290
RightHand 8.547218 -0.000000 4.072568
RightHandThumb1 -24.326973 -0.000000 -32.862282
LeftUpLeg -117.217752 34.134675 -4.424422
LeftLeg -0.979150 -0.000000 0.000000
LeftFoot 0.766277 -1.451138 10.698692
LeftToeBase -4.523540 -0.000000 0.000000
RightUpLeg -0.696224 17.836093 -30.819873
RightLeg 131.923204 -0.000000 -0.000000
RightFoot 46.353349 14.611090 -8.749711
RightToeBase 33.312812 -0.000000 -0.000000
1911
root 4.980012 34.551424 4.942218 133.288927 -13.203304 -36.764619
Spine -77.200970 -11.859227 37.988742
Head -12.555208 24.159141 44.843136
LeftShoulder -21.667821 37.470266 41.064375
LeftArm 134.818178 -76.414626 -163.719447
LeftForeArm 53.271604 0.000000 112.431872
LeftHand 12.642521 -0.000000 31.134381
LeftHandThumb1 -26.253704 0.000000 33.147579
RightShoulder -59.086086 -52.647787 19.768635
RightArm 21.808479 16.092490 64.076700
RightForeArm 20.536645 -0.000000 115.758627
RightHand 8.606238 -0.000000 4.182155
RightHandThumb1 -24.326973 -0.000000 -32.862282
LeftUpLeg -117.365681 34.082947 -4.509212
LeftLeg -0.832462 -0.000000 0.000000
LeftFoot 0.601144 -1.430359 10.481616
LeftToeBase -4.218816 -0.000000 0.000000
RightUpLeg -0.699171 18.076181 -30.923366
RightLeg 132.087426 -0.000000 -0.000000
RightFoot 46.592404 14.756015 -8.461067
RightToeBase 33.643016 -0.000000 -0.000000
